<?xml version="1.0" encoding="utf-8"?>
<!-- Generator: Adobe Illustrator 19.1.1, SVG Export Plug-In . SVG Version: 6.00 Build 0)  -->
<svg version="1.1" id="Layer_1" xmlns="http://www.w3.org/2000/svg" xmlns:xlink="http://www.w3.org/1999/xlink" x="0px" y="0px"
	 viewBox="0 0 248.8 35" style="enable-background:new 0 0 248.8 35;" xml:space="preserve">
<style type="text/css">
	.st0{fill:#012C47;}
	.st1{fill:#7EB6C6;}
	.st2{fill:#4B7D98;}
</style>
<g>
	<path class="st0" d="M106.6,30.6c1.1-1.5,1.6-3.4,1.6-5.3c0-1.4-0.2-2.8-0.8-4.1c-0.8-1.9-2.3-3.3-4-4.5c-1.9-1.3-4.1-2.2-6.2-3.2
		c-1.2-0.6-2.5-1.1-3.5-2c-0.7-0.6-1.4-1.3-1.6-2.2c-0.2-0.8,0-1.7,0.5-2.4c0.7-0.9,1.8-1.4,2.9-1.6c1.7-0.3,3.5-0.2,5.1,0.3
		c2.2,0.6,4.2,1.6,6.2,2.8c0-2,0-3.9,0-5.9C104,1,100.9,0.1,97.8,0h-1.6c-1.6,0.1-3.3,0.3-4.8,0.9c-1.6,0.6-3.1,1.7-4.2,3
		c-1,1.2-1.5,2.7-1.7,4.2c-0.2,1.9,0.1,4,1.1,5.7c0.7,1.2,1.6,2.2,2.7,3c1.3,1,2.7,1.8,4.2,2.5c1.3,0.6,2.7,1.3,4,2
		c0.7,0.4,1.4,0.7,2,1.1c0.9,0.6,1.7,1.5,2,2.6c0.2,0.9,0.1,2-0.5,2.8c-0.8,1.1-2.1,1.7-3.4,1.9c-2.7,0.4-5.4-0.4-7.8-1.7
		c-1.4-0.8-2.7-1.7-3.9-2.7c0,2.2,0,4.4,0,6.5c1.6,0.9,3.2,1.8,4.9,2.4c1.5,0.5,3.1,0.7,4.7,0.8h2.5c1.6-0.1,3.2-0.4,4.7-1.1
		C104.1,33.1,105.5,32,106.6,30.6z"/>
	<path class="st0" d="M147.6,22.4c1.1-3.9,0.9-8.3-0.9-12.1c-1.3-2.9-3.4-5.4-6.1-7.2c-3-2-6.7-3-10.3-3.1h-1.9
		c-2.1,0.1-4.2,0.4-6.2,1.1c-3,1-5.8,2.9-7.9,5.4c-2.5,3.1-3.9,7-3.9,10.9c0,1.9,0.3,3.7,0.8,5.5c1,3.1,2.9,5.8,5.4,7.8
		c3.2,2.6,7.3,4,11.3,4.2h2.5c3.8-0.2,7.6-1.4,10.7-3.7C144.3,29.1,146.5,25.9,147.6,22.4z M120.6,25.9c-1.3-1.3-2.2-2.9-2.7-4.7
		c-0.6-2-0.6-4.1-0.3-6.2c0.3-1.9,1.1-3.7,2.3-5.2c1-1.3,2.4-2.3,3.8-3c2.9-1.3,6.2-1.5,9.3-0.7c1.6,0.4,3.2,1.2,4.4,2.3
		c1.3,1.1,2.3,2.5,3,4.1c0.8,1.9,1.1,4.1,0.9,6.2c-0.1,1.8-0.7,3.7-1.6,5.2c-0.9,1.5-2.2,2.7-3.6,3.6c-1.7,1-3.6,1.6-5.5,1.7
		c-1.9,0.1-3.8,0-5.5-0.6"/>
	<path class="st0" d="M181.4,31.8c0-2.1,0-4.2,0-6.2c-2.2,1.2-4.4,2.3-6.8,3c-2.5,0.7-5.3,0.9-7.9,0.4c-2.9-0.5-5.6-1.9-7.4-4.3
		c-2.4-3-3-7.3-1.8-11c0.6-1.8,1.6-3.4,2.9-4.7c2.3-2.2,5.5-3.3,8.6-3.4c2.2-0.1,4.5,0.2,6.6,0.9c1.9,0.6,3.7,1.5,5.5,2.5
		c0-2.1,0-4.2,0-6.2c-1.3-0.6-2.6-1.2-4-1.6c-2.2-0.7-4.5-1.1-6.8-1.2h-1.9c-3.8,0.1-7.6,1.2-10.8,3.3c-2.9,1.9-5.2,4.8-6.4,8
		c-0.8,2-1.1,4.2-1.1,6.4c-0.1,5.3,2.5,10.7,6.9,13.8c3.1,2.2,6.8,3.3,10.6,3.5h2.9c2-0.1,3.9-0.4,5.8-0.9
		C178,33.5,179.7,32.7,181.4,31.8z"/>
	<path class="st1" d="M32.9,9.6c0-3.1,0-6.2,0-9.3c-11,0-21.9,0-32.9,0v9.3C11,9.6,21.9,9.6,32.9,9.6z"/>
	<path class="st0" d="M76.2,24.2C69.4,16.3,62.7,8.4,55.9,0.4c-1.9,0-3.9,0-5.8,0c0,11.4,0,22.8,0,34.2c2.2,0,4.3,0,6.5,0
		c0-6.6,0-13.3,0-19.9c0-1.4,0-2.8,0-4.2c0.8,0.9,1.6,1.8,2.4,2.7c6,7.1,12,14.3,18.1,21.4c1.9,0,3.8,0,5.7,0c0-11.4,0-22.8,0-34.2
		c-2.2,0-4.3,0-6.5,0C76.2,8.4,76.2,16.3,76.2,24.2z"/>
	<path class="st0" d="M36.8,34.6c2.2,0,4.4,0,6.6,0c0-11.4,0-22.8,0-34.2c-2.2,0-4.4,0-6.6,0C36.8,11.8,36.8,23.2,36.8,34.6z"/>
	<path class="st1" d="M200.2,10.1c0-1.8,0-3.7,0-5.5c1.6,1.8,3.1,3.7,4.6,5.5c0.4,0,0.9,0,1.3,0c0-2.5,0-4.9,0-7.4
		c0-0.1,0-0.3-0.1-0.4c-0.5,0-1,0-1.4,0c0,1.8,0,3.6,0,5.4c-1.6-1.8-3.1-3.6-4.6-5.4c-0.4,0-0.9,0-1.3,0c0,2.6,0,5.2,0,7.8
		C199.2,10.1,199.7,10.1,200.2,10.1z"/>
	<path class="st1" d="M215.1,10.1c-1.1-2.6-2.3-5.2-3.5-7.8c-0.5,0-1,0-1.5,0c-1.1,2.6-2.2,5.2-3.2,7.8c0.5,0,1.1,0,1.6,0
		c0.3-0.6,0.5-1.3,0.8-1.9c1.1,0,2.3,0,3.4,0c0.3,0.6,0.5,1.3,0.8,1.9C214,10.1,214.5,10.1,215.1,10.1z M209.7,7.1
		c0.4-1,0.8-2,1.2-3c0.4,1,0.9,2,1.3,3C211.3,7.1,210.5,7.1,209.7,7.1z"/>
	<path class="st1" d="M217.2,10.1c0-1.8,0-3.6,0-5.5c1.6,1.8,3.1,3.7,4.6,5.5c0.4,0,0.9,0,1.3,0c0-2.5,0-5,0-7.5
		c0-0.1,0-0.3-0.2-0.3c-0.4,0-0.9,0-1.3,0c0,1.8,0,3.6,0,5.4c-1.6-1.8-3.1-3.6-4.6-5.4c-0.4,0-0.9,0-1.3,0c0,2.6,0,5.2,0,7.8
		C216.2,10.1,216.7,10.1,217.2,10.1z"/>
	<path class="st1" d="M226.5,9.8c1.6,0.7,3.5,0.5,5-0.3c0-0.5,0-1,0-1.5c-0.5,0.2-1,0.5-1.5,0.7c-1.1,0.3-2.4,0.2-3.2-0.6
		c-1-0.9-1.1-2.6-0.3-3.6c0.6-0.7,1.6-1,2.5-1c0.9,0,1.7,0.4,2.5,0.8c0-0.5,0-1,0-1.4c-1.5-0.8-3.5-0.9-5-0.1
		c-1.2,0.6-2,1.9-2.1,3.3C224.2,7.6,225.1,9.2,226.5,9.8z"/>
	<path class="st1" d="M248.7,6.2c-0.5-0.1-1,0-1.5,0c-0.2,0.4-0.5,0.9-0.9,1.2c-0.4-0.4-0.7-0.8-1-1.2c0.5-0.4,1-0.8,1.3-1.3
		c0.3-0.6,0.2-1.4-0.3-1.9c-0.8-0.8-2.2-0.8-3.1-0.2c-0.5,0.4-0.9,1-0.8,1.7c0,0.6,0.4,1.1,0.8,1.6c-0.6,0.4-1.3,0.8-1.6,1.5
		c-0.3,0.8-0.1,1.7,0.6,2.2c0.7,0.6,1.6,0.6,2.5,0.4c0.6-0.1,1.1-0.4,1.5-0.8c0.2,0.3,0.5,0.5,0.7,0.8c0.6,0,1.3,0,1.9,0
		c-0.4-0.6-1-1.1-1.5-1.7C247.9,7.7,248.4,7,248.7,6.2z M243.9,4c0.1-0.5,0.7-0.7,1.2-0.4c0.4,0.2,0.5,0.8,0.2,1.1
		c-0.2,0.3-0.5,0.4-0.7,0.6C244.3,4.9,243.9,4.5,243.9,4z M243.9,9c-0.5,0-1-0.5-0.9-1.1c0.2-0.5,0.6-0.7,1-1c0.5,0.5,0.9,1,1.4,1.5
		C244.9,8.7,244.4,9.1,243.9,9z"/>
	<path class="st1" d="M189.8,10.1c0.5,0,1,0,1.5,0c0-1.1,0-2.3,0-3.4c1.1,0,2.2,0,3.3,0c0-0.4,0-0.8,0-1.2c-1.1,0-2.2,0-3.2,0
		c0-0.7,0-1.3,0-2c1.1,0,2.2,0,3.3,0c0-0.4,0-0.8,0-1.2c-1.6,0-3.2,0-4.7,0C189.8,4.9,189.8,7.5,189.8,10.1z"/>
	<path class="st1" d="M197.2,10.1c0-2.6,0-5.2,0-7.8c-0.5,0-1-0.1-1.5,0c0,0.2,0,0.4,0,0.6c0,2.4,0,4.8,0,7.2
		C196.2,10.1,196.7,10.1,197.2,10.1z"/>
	<path class="st1" d="M232.7,4.8c0,1.8,0,3.6,0,5.3c1.7,0,3.4,0,5.2,0c0-0.4,0-0.8,0-1.2c-1.2,0-2.4,0-3.6,0c0-0.7,0-1.5,0-2.2
		c1.1,0,2.2,0,3.4,0c0-0.4,0-0.8,0-1.2c-1.1,0-2.2,0-3.4,0c0-0.7,0-1.4,0-2c1.2,0,2.4,0,3.5,0c0-0.4,0-0.8,0-1.2c-1.7,0-3.4,0-5,0
		C232.6,3.1,232.7,3.9,232.7,4.8z"/>
	<path class="st2" d="M19.9,13.1c-6.6,0-13.2,0-19.9,0v9.3c6.6,0,13.2,0,19.9,0C19.9,19.3,19.9,16.2,19.9,13.1z"/>
	<path class="st1" d="M199.1,14.1c-1.1,2.6-2.1,5.2-3.2,7.8c0.5,0,1.1,0,1.6,0c0.3-0.6,0.5-1.2,0.7-1.9c1.1,0,2.3,0,3.4,0
		c0.3,0.6,0.5,1.2,0.8,1.9c0.5,0,1.1,0,1.6,0c-1.2-2.6-2.3-5.2-3.4-7.8C200.2,14.1,199.7,14.1,199.1,14.1z M198.8,18.8
		c0.3-0.9,0.7-1.7,1-2.6c0-0.1,0.1-0.3,0.2-0.4c0.4,1,0.9,2,1.3,3C200.4,18.8,199.6,18.8,198.8,18.8z"/>
	<path class="st1" d="M218.7,21.9c0.7,0,1.3,0,2,0c-1.2-1.4-2.5-2.7-3.8-4.1c0.8-1,1.5-1.9,2.3-2.9c0.2-0.3,0.5-0.5,0.6-0.8
		c-0.6,0-1.1,0-1.7,0c-1,1.2-1.9,2.4-2.8,3.6c0-1.2,0-2.4,0-3.6c-0.5,0-1,0-1.5,0c0,2.6,0,5.2,0,7.8c0.5,0,1,0,1.5,0
		c0-1.3,0-2.5,0-3.8C216.4,19.4,217.6,20.6,218.7,21.9z"/>
	<path class="st1" d="M240.3,17.9c-0.9,0-1.9,0-2.8,0c0,0.4,0,0.8,0,1.2c0.4,0,0.9,0,1.3,0c0,0.4,0,0.9,0,1.3
		c-0.6,0.2-1.3,0.4-2,0.2c-0.7-0.1-1.5-0.5-1.9-1.1c-0.9-1.3-0.4-3.3,1.1-3.9c1.4-0.6,2.9-0.2,4.2,0.4c0-0.5,0-0.9,0-1.4
		c-0.8-0.4-1.6-0.6-2.5-0.6c-1.4-0.1-2.9,0.3-3.8,1.4c-1.1,1.2-1.3,3.2-0.5,4.6c0.6,1.1,1.8,1.8,3,1.9c1.3,0.2,2.8,0,4-0.8
		C240.3,20,240.4,19,240.3,17.9z"/>
	<path class="st1" d="M195.4,18.7c-0.3-0.5-0.9-0.8-1.4-1c0.3-0.2,0.6-0.4,0.8-0.7c0.4-0.6,0.3-1.6-0.2-2.1
		c-0.5-0.5-1.2-0.7-1.9-0.7c-1,0-2,0-2.9,0c0,2.6,0,5.2,0,7.8c1.1,0,2.3,0,3.4,0c0.7,0,1.3-0.2,1.8-0.6
		C195.8,20.6,195.9,19.5,195.4,18.7z M191.3,15.3c0.6,0,1.2-0.1,1.8,0.2c0.6,0.3,0.6,1.3,0,1.6c-0.5,0.3-1.2,0.2-1.8,0.2
		C191.3,16.6,191.3,16,191.3,15.3z M193.6,20.5c-0.7,0.3-1.5,0.2-2.3,0.2c0-0.7,0-1.4,0-2.2c0.8,0,1.6-0.2,2.3,0.2
		C194.3,19,194.3,20.2,193.6,20.5z"/>
	<path class="st1" d="M210.8,19.5c-1.5-1.7-3-3.5-4.5-5.3c-0.1-0.1-0.2-0.1-0.3-0.1c-0.4,0-0.8,0-1.2,0c0,2.6,0,5.2,0,7.8
		c0.5,0,1,0,1.5,0c0-1.8,0-3.6,0-5.5c1.5,1.8,3.1,3.6,4.6,5.5c0.4,0,0.9,0,1.3,0c0-2.6,0-5.2,0-7.8c-0.5,0-1,0-1.5,0
		C210.8,15.9,210.8,17.7,210.8,19.5z"/>
	<path class="st1" d="M221.3,14.1c0,2.6,0,5.2,0,7.8c0.5,0,1,0,1.5,0c0-2.6,0-5.2,0-7.8C222.3,14.1,221.8,14.1,221.3,14.1z"/>
	<path class="st1" d="M225.8,21.9c0-1.8,0-3.6,0-5.5c1.5,1.8,3.1,3.6,4.6,5.5c0.4,0,0.9,0,1.3,0c0-2.6,0-5.2,0-7.8c-0.5,0-1,0-1.5,0
		c0,1.8,0,3.6,0,5.4c-1.1-1.2-2.1-2.5-3.2-3.7c-0.5-0.5-0.9-1.1-1.4-1.6c-0.4-0.1-0.9,0-1.3,0c0,2.6,0,5.2,0,7.8
		C224.8,21.9,225.3,21.9,225.8,21.9z"/>
	<path class="st0" d="M9.9,25.7c-3.3,0-6.6,0-9.9,0V35h9.9C9.9,31.9,9.9,28.8,9.9,25.7z"/>
	<path class="st1" d="M191.4,28.5c-0.3-0.2-0.6-0.6-0.5-1c0.2-0.4,0.6-0.5,1-0.5c0.8,0,1.6,0.3,2.3,0.7c0-0.5,0-0.9,0-1.4
		c-1.2-0.6-2.8-0.9-4-0.1c-1,0.6-1.1,2.2-0.3,3c0.5,0.6,1.4,0.9,2.1,1.3c0.3,0.2,0.7,0.3,0.9,0.6c0.2,0.3,0.3,0.8,0,1
		c-0.3,0.3-0.8,0.4-1.3,0.4c-0.8-0.1-1.5-0.5-2.1-1c0,0.5,0,1,0,1.5c1,0.6,2.2,0.9,3.4,0.6c0.7-0.2,1.4-0.7,1.6-1.5
		c0.2-0.7,0.1-1.4-0.3-2C193.5,29.3,192.3,29,191.4,28.5z"/>
	<path class="st1" d="M202.4,26.6c-1-0.7-2.3-0.9-3.5-0.8c-1.1,0.1-2.2,0.7-2.9,1.7c-1,1.4-0.9,3.4,0.1,4.7c1.6,1.9,4.8,2.1,6.6,0.4
		c0.7-0.7,1.2-1.7,1.2-2.6C204.1,28.7,203.4,27.3,202.4,26.6z M201.7,31.6c-1,1-2.8,1.1-3.9,0.2c-1.1-0.9-1.2-2.8-0.2-3.9
		c0.4-0.5,1-0.8,1.7-0.8c0.8-0.1,1.7,0.1,2.3,0.6C202.6,28.7,202.7,30.6,201.7,31.6z"/>
	<path class="st1" d="M209.9,32.4c-1,0.2-2.1-0.1-2.8-0.8c-1-1-1-2.7,0-3.7c0.7-0.7,1.7-0.9,2.6-0.8c0.8,0,1.5,0.4,2.2,0.7
		c0-0.5,0-1,0-1.4c-1.7-0.9-3.8-0.9-5.4,0.1c-1.3,0.8-1.9,2.4-1.7,3.9c0.2,1.2,0.9,2.3,2,2.8c1,0.5,2.2,0.6,3.3,0.4
		c0.6-0.1,1.2-0.4,1.8-0.6c0-0.5,0-1,0-1.5C211.3,31.9,210.7,32.3,209.9,32.4z"/>
	<path class="st1" d="M213.2,25.8c0,2.6,0,5.2,0,7.8c0.5,0,1,0,1.5,0c0-2.6,0-5.2,0-7.8C214.2,25.8,213.7,25.8,213.2,25.8z"/>
	<path class="st1" d="M217.8,32.4c0-0.7,0-1.5,0-2.2c1.1,0,2.2,0,3.4,0c0-0.4,0-0.8,0-1.2c-1.1,0-2.2,0-3.4,0c0-0.7,0-1.4,0-2
		c1.2,0,2.4,0,3.5,0c0-0.4,0-0.8,0-1.2c-1.7,0-3.4,0-5.1,0c0,2.6,0,5.2,0,7.8c1.7,0,3.4,0,5.1,0c0-0.4,0-0.8,0-1.2
		C220.2,32.4,219,32.4,217.8,32.4z"/>
	<path class="st1" d="M222,27c0.9,0,1.8,0,2.7,0c0,2.2,0,4.4,0,6.6c0.5,0,1,0,1.5,0c0-2.2,0-4.4,0-6.6c0.9,0,1.8,0,2.8,0
		c0-0.4,0-0.8,0-1.2c-2.4,0-4.7,0-7.1,0C222,26.2,222,26.6,222,27z"/>
	<path class="st1" d="M232.8,28.4c-0.5-0.6-1-1.3-1.4-1.9c-0.2-0.2-0.3-0.5-0.5-0.6c-0.6,0-1.2,0-1.8,0c0.9,1.1,1.7,2.3,2.6,3.4
		c0.2,0.2,0.4,0.5,0.4,0.8c0,1.2,0,2.4,0,3.6c0.5,0,1,0,1.5,0c0-1.1,0-2.3,0-3.4c0-0.2,0-0.5,0.1-0.6c0.9-1.3,1.9-2.5,2.8-3.8
		c-0.6,0-1.2,0-1.8,0C234.1,26.7,233.5,27.6,232.8,28.4z"/>
</g>
</svg>
